<svg width="980" height="87" viewBox="0 0 980 87" fill="none" xmlns="http://www.w3.org/2000/svg">
<g clip-path="url(#clip0_2375_591)">
<path d="M226.53 81.1499V5.62988H252.44V81.1499H226.53Z" fill="black"/>
<path d="M389.401 5.63002V81.15H361.331L297.721 32.7V81.15H271.811V5.52002H302.811L363.521 51.82V5.63002H389.401Z" fill="black"/>
<path d="M510 26.1699H436.8V39.9999H507.34V59.4099H436.84V81.1499H410.94V5.62988H510V26.1699Z" fill="black"/>
<path d="M526.15 81.1499V5.62988H552.05V81.1499H526.15Z" fill="black"/>
<path d="M691.17 5.63002V81.15H663.11L599.49 32.7V81.15H573.58V5.52002H604.58L665.29 51.82V5.63002H691.17Z" fill="black"/>
<path d="M737 44.6001C737 50.1401 738.597 54.4401 741.79 57.5001C744.983 60.5601 750.687 62.0868 758.9 62.0801H772.62C787.36 62.0801 794.73 56.2534 794.73 44.6001V5.6001H820.64V44.7001C820.64 55.7601 817.183 64.7768 810.27 71.7501C803.357 78.7234 792.783 82.2068 778.55 82.2001H752.84C746.273 82.3289 739.731 81.3484 733.49 79.3001C727.586 77.0925 722.327 73.4455 718.19 68.6901C713.477 63.5501 711.123 55.5501 711.13 44.6901V5.6301H737V44.6001Z" fill="black"/>
<path d="M866.44 81.1499H840.53V5.62988H877.87L910.1 55.1299L941.48 5.62988H979.35V81.1499H953.49V30.2199L921.21 81.1499H899.56L866.44 30.3299V81.1499Z" fill="black"/>
<path d="M132.26 0.000117566C113.26 0.000117566 99.7201 13.5301 87.8001 26.0001C75.8701 13.5301 62.2901 0.000117566 43.3301 0.000117566C31.951 0.172981 21.0964 4.81466 13.1106 12.9227C5.12471 21.0308 0.648438 31.9547 0.648438 43.3351C0.648438 54.7156 5.12471 65.6394 13.1106 73.7475C21.0964 81.8556 31.951 86.4972 43.3301 86.6701C62.3301 86.6701 75.8901 73.1401 87.8101 60.6701C99.7401 73.1101 113.33 86.6701 132.26 86.6701C138.006 86.7574 143.713 85.701 149.047 83.5624C154.381 81.4238 159.236 78.2457 163.331 74.213C167.425 70.1803 170.677 65.3736 172.896 60.0726C175.115 54.7715 176.258 49.082 176.258 43.3351C176.258 37.5882 175.115 31.8987 172.896 26.5977C170.677 21.2966 167.425 16.4899 163.331 12.4572C159.236 8.42455 154.381 5.24644 149.047 3.10783C143.713 0.96922 138.006 -0.0871747 132.26 0.000117566ZM151.26 43.3301C151.26 48.3692 149.258 53.202 145.695 56.7651C142.132 60.3283 137.299 62.3301 132.26 62.3301C123.32 62.3301 114.67 53.5701 104.83 43.3301C114.35 33.3901 123.37 24.3301 132.26 24.3301C134.758 24.3262 137.232 24.8147 139.54 25.7678C141.849 26.7209 143.947 28.1198 145.715 29.8845C147.482 31.6492 148.884 33.7451 149.841 36.0522C150.798 38.3593 151.29 40.8325 151.29 43.3301H151.26ZM70.7401 43.3301C61.6001 52.8901 52.2001 62.3301 43.3001 62.3301C38.261 62.3301 33.4283 60.3283 29.8651 56.7651C26.3019 53.202 24.3001 48.3692 24.3001 43.3301C24.3001 38.291 26.3019 33.4583 29.8651 29.8951C33.4283 26.3319 38.261 24.3301 43.3001 24.3301C52.2301 24.3101 60.8401 33.0001 70.7701 43.3401L70.7401 43.3301Z" fill="#D82828"/>
</g>
<defs>
<clipPath id="clip0_2375_591">
<rect width="980" height="87" fill="white"/>
</clipPath>
</defs>
</svg>
